<svg width="24" height="24" viewBox="0 0 24 24" fill="none" xmlns="http://www.w3.org/2000/svg">
<path d="M1.01761 7.19713L3.94053 4.809L2.69849 21.8905L0.011613 21.573L1.01761 7.19713Z" fill="#6C51A6"/>
<path d="M3.94056 4.80899L7.91984 4.81146V7.15236L3.73907 7.14607L3.94056 4.80899Z" fill="#6C51A6"/>
<path d="M6.61017 9.67331V1.25508L7.91981 0.0396163L7.91981 9.67331H6.61017Z" fill="#6C51A6"/>
<path d="M17.3895 9.67331V1.25508L16.0799 0.0396163V9.67331H17.3895Z" fill="#6C51A6"/>
<path d="M7.91982 0.0316483L16.0053 0.0316489L17.3657 1.25274L6.62452 1.28876L7.91982 0.0316483Z" fill="#6C51A6"/>
<rect x="9.12872" y="4.81146" width="8.16006" height="2.3409" fill="#6C51A6"/>
<path d="M22.9807 7.19102C21.8948 6.23627 21.0946 5.76375 20.0088 4.809L21.1862 21.5835L24 21.5835L22.9807 7.19102Z" fill="#6C51A6"/>
<path d="M20.0088 4.80899L18.5984 4.80362V7.1407H20.2103L20.0088 4.80899Z" fill="#6C51A6"/>
<path d="M0.0115967 21.573H23.9881L21.4245 24H2.77618L0.0115967 21.573Z" fill="#6C51A6"/>
<path d="M6.81165 11.9047L8.87752 11.9078L10.7035 18.3478L8.78877 18.3449L6.81165 11.9047Z" fill="#6C51A6"/>
<path d="M11.2443 11.9608L13.3095 11.9608L15.1228 18.3429L13.2087 18.3429L11.2443 11.9608Z" fill="#6C51A6"/>
<path d="M12.705 11.9608L10.6398 11.9608L8.82647 18.3429L10.7406 18.3429L12.705 11.9608Z" fill="#6C51A6"/>
<path d="M17.1376 11.8709L15.0714 11.8755L13.2396 18.3424L15.1535 18.3424L17.1376 11.8709Z" fill="#6C51A6"/>
</svg>

